<svg width="556" height="115" viewBox="0 0 556 115" fill="none" xmlns="http://www.w3.org/2000/svg">
<path d="M0 88.8281V2.34375H19.1602L44.8242 46.5234H42.4219L68.0273 2.34375H87.5391V88.8281H71.25V22.2656L72.5391 22.6172L49.6289 63.6914H37.9688L14.2383 22.8516L16.2891 22.5V88.8281H0Z" fill="white" fill-opacity="0.1"/>
<path d="M105.938 25.8984H121.816V88.8281H105.938V25.8984ZM105.82 15.5859V0.0585938H121.875V15.5859H105.82Z" fill="white" fill-opacity="0.1"/>
<path d="M138.516 25.8984H154.453V31.4648C156.875 29.3945 159.551 27.7148 162.48 26.4258C165.41 25.1367 169.16 24.4922 173.73 24.4922C178.457 24.4922 182.285 25.3711 185.215 27.1289C188.145 28.8477 190.293 31.1523 191.66 34.043C193.027 36.9336 193.711 40.1562 193.711 43.7109V88.8281H177.773V44.5898C177.773 42.3633 177.188 40.6641 176.016 39.4922C174.883 38.3203 173.457 37.5195 171.738 37.0898C170.059 36.6602 168.379 36.4453 166.699 36.4453C164.785 36.4453 162.891 36.7969 161.016 37.5C159.141 38.2031 157.578 39.2383 156.328 40.6055C155.078 41.9727 154.453 43.6914 154.453 45.7617V88.8281H138.516V25.8984Z" fill="white" fill-opacity="0.1"/>
<path d="M236.25 114.668C232.344 114.668 228.438 114.375 224.531 113.789C220.664 113.242 217.637 112.441 215.449 111.387L218.73 100.547C221.699 101.367 224.648 101.973 227.578 102.363C230.547 102.793 233.242 103.008 235.664 103.008C240.234 103.008 243.555 102.012 245.625 100.02C247.695 98.0664 248.73 94.9219 248.73 90.5859V83.6719C247.48 84.4141 246.035 85.0391 244.395 85.5469C242.793 86.0156 241.133 86.3672 239.414 86.6016C237.695 86.8359 236.035 86.9531 234.434 86.9531C226.855 86.9531 220.859 85.2344 216.445 81.7969C212.07 78.3594 209.883 73.5547 209.883 67.3828V44.8242C209.883 41.2305 210.645 37.8906 212.168 34.8047C213.691 31.7188 216.211 29.2383 219.727 27.3633C223.242 25.4883 227.949 24.5508 233.848 24.5508C236.152 24.5508 238.398 24.8242 240.586 25.3711C242.812 25.8789 244.863 26.582 246.738 27.4805C248.613 28.3398 250.195 29.3164 251.484 30.4102L252.832 25.8398H264.668V89.5312C264.668 94.6875 263.691 99.1406 261.738 102.891C259.824 106.68 256.777 109.59 252.598 111.621C248.457 113.652 243.008 114.668 236.25 114.668ZM237.07 76.3477C239.766 76.3477 242.109 76.0742 244.102 75.5273C246.094 74.9805 247.637 74.3164 248.73 73.5352V40.0781C248.73 39.2578 247.676 38.3203 245.566 37.2656C243.496 36.2109 240.664 35.6836 237.07 35.6836C233.438 35.6836 230.645 36.3672 228.691 37.7344C226.777 39.0625 225.82 41.3086 225.82 44.4727V67.9688C225.82 71.1328 226.855 73.3203 228.926 74.5312C231.035 75.7422 233.75 76.3477 237.07 76.3477Z" fill="white" fill-opacity="0.1"/>
<path d="M287.051 36.0352H278.672V25.8984H287.051V22.9102C287.051 15.4492 288.711 9.76562 292.031 5.85938C295.391 1.95312 300.801 0 308.262 0H315.645L316.055 11.0742H311.133C307.695 11.0742 305.469 11.9336 304.453 13.6523C303.477 15.332 302.988 17.2266 302.988 19.3359V25.8984H315.527V36.0352H302.988V88.8281H287.051V36.0352Z" fill="white" fill-opacity="0.1"/>
<path d="M326.016 69.1406V44.5898C326.016 38.1836 328.438 33.2422 333.281 29.7656C338.164 26.2891 344.688 24.5508 352.852 24.5508C362.539 24.5508 369.414 26.4062 373.477 30.1172C377.578 33.8281 379.629 38.8477 379.629 45.1758V60.4102H341.953V70.6641C341.953 74.375 342.91 76.7188 344.824 77.6953C346.738 78.6328 349.59 79.1016 353.379 79.1016C356.426 79.1016 358.77 78.8477 360.41 78.3398C362.051 77.793 363.184 76.8359 363.809 75.4688C364.473 74.0625 364.805 72.0703 364.805 69.4922H379.57C379.57 74.6875 378.594 78.7891 376.641 81.7969C374.727 84.8047 371.797 86.9531 367.852 88.2422C363.945 89.5312 359.023 90.1758 353.086 90.1758C347.969 90.1758 343.359 89.5508 339.258 88.3008C335.156 87.0117 331.914 84.8438 329.531 81.7969C327.188 78.75 326.016 74.5312 326.016 69.1406ZM364.57 50.6836V43.3008C364.57 40.957 364.062 39.2578 363.047 38.2031C362.07 37.1094 360.723 36.4258 359.004 36.1523C357.324 35.8398 355.41 35.6836 353.262 35.6836C350.059 35.6836 347.363 36.1719 345.176 37.1484C343.027 38.0859 341.953 40.2344 341.953 43.5938V50.6836H364.57Z" fill="white" fill-opacity="0.1"/>
<path d="M393.398 25.8984H409.277V88.8281H393.398V25.8984ZM393.281 15.5859V0.0585938H409.336V15.5859H393.281Z" fill="white" fill-opacity="0.1"/>
<path d="M457.969 88.8281V2.34375H491.25C499.336 2.34375 505.586 3.16406 510 4.80469C514.453 6.44531 517.539 8.94531 519.258 12.3047C521.016 15.625 521.895 19.8828 521.895 25.0781C521.895 29.8047 521.035 33.6133 519.316 36.5039C517.598 39.3555 514.004 41.25 508.535 42.1875V41.4844C513.184 41.7969 516.738 42.8711 519.199 44.707C521.66 46.5039 523.34 48.9258 524.238 51.9727C525.137 55.0195 525.586 58.5547 525.586 62.5781C525.586 71.6406 523.242 78.2812 518.555 82.5C513.906 86.7188 506.211 88.8281 495.469 88.8281H457.969ZM475.371 76.6406H492.246C496.777 76.6406 500.176 76.2695 502.441 75.5273C504.746 74.7852 506.289 73.3789 507.07 71.3086C507.852 69.1992 508.242 66.1523 508.242 62.168C508.242 59.2773 507.949 56.7578 507.363 54.6094C506.816 52.4219 505.527 50.7227 503.496 49.5117C501.504 48.2617 498.34 47.6367 494.004 47.6367H475.371V76.6406ZM475.371 37.1484H493.359C496.758 37.1484 499.199 36.6992 500.684 35.8008C502.207 34.9023 503.164 33.5742 503.555 31.8164C503.945 30.0195 504.141 27.832 504.141 25.2539C504.141 22.207 503.789 19.9023 503.086 18.3398C502.383 16.7383 501.035 15.6641 499.043 15.1172C497.051 14.5312 494.082 14.2383 490.137 14.2383H475.371V37.1484Z" fill="white" fill-opacity="0.1"/>
<path d="M539.414 25.8984H555.293V88.8281H539.414V25.8984ZM539.297 15.5859V0.0585938H555.352V15.5859H539.297Z" fill="white" fill-opacity="0.1"/>
</svg>
